{"title":"WWE Monday Night  RAW  01 08 11 _theMIZ","uid":6578147,"size":598826782,"categoryP":"video","categoryS":"tv_shows","magnet":"?xt=urn:btih:cebcc9aef0c82177f204889b9643e17ac7183a0f&amp;dn=WWE+Monday+Night++RAW++01+08+11+_theMIZ&amp;tr=udp%3A%2F%2Ftracker.openbittorrent.com%3A80&amp;tr=udp%3A%2F%2Fopen.demonii.com%3A1337&amp;tr=udp%3A%2F%2Ftracker.coppersurfer.tk%3A6969&amp;tr=udp%3A%2F%2Fexodus.desync.com%3A6969","seeders":0,"leechers":1,"uploader":"dmizz24","files":6,"time":1312294175,"description":"please SEED after download\n_________________________________________________________________\n\ncomplete WWE Monday Night  RAW  01 08 11\nenjoy \n\nits in 6parts..description of first file is under..\n\nGeneral\nFormat                           : Flash Video\nFile size                        : 96.2 MiB\nDuration                         : 14mn 46s\nOverall bit rate                 : 911 Kbps\nhttphostheader                   :\n\nVideo\nFormat                           : AVC\nFormat/Info                      : Advanced Video Codec\nFormat profile                   : &lt;a class=&quot;__cf_email__&quot; href=&quot;/cdn-cgi/l/email-protection&quot; data-cfemail=&quot;cf82aea6a18f83fce1ff&quot;&gt;[email&amp;#160;protected]&lt;/a&gt;&lt;script cf-hash='f9e31' type=&quot;text/javascript&quot;&gt;\n/* &lt;![CDATA[ */!function(){try{var t=&quot;currentScript&quot;in document?document.currentScript:function(){for(var t=document.getElementsByTagName(&quot;script&quot;),e=t.length;e--;)if(t[e].getAttribute(&quot;cf-hash&quot;))return t[e]}();if(t&amp;&amp;t.previousSibling){var e,r,n,i,c=t.previousSibling,a=c.getAttribute(&quot;data-cfemail&quot;);if(a){for(e=&quot;&quot;,r=parseInt(a.substr(0,2),16),n=2;a.length-n;n+=2)i=parseInt(a.substr(n,2),16)^r,e+=String.fromCharCode(i);e=document.createTextNode(e),c.parentNode.replaceChild(e,c)}}}catch(u){}}();/* ]]&gt; */&lt;/script&gt;\nFormat settings, CABAC           : Yes\nFormat settings, ReFrames        : 3 frames\nFormat settings, GOP             : M=1, N=60\nCodec ID                         : 7\nDuration                         : 14mn 46s\nBit rate                         : 773 Kbps\nWidth                            : 640 pixels\nHeight                           : 360 pixels\nDisplay aspect ratio             : 16:9\nFrame rate mode                  : Constant\nFrame rate                       : 30.000 fps\nColor space                      : YUV\nChroma subsampling               : 4:2:0\nBit depth                        : 8 bits\nScan type                        : Progressive\nBits/(Pixel*Frame)               : 0.112\nStream size                      : 81.7 MiB (85%)\n\nAudio\nFormat                           : AAC\nFormat/Info                      : Advanced Audio Codec\nFormat profile                   : LC\nCodec ID                         : 10\nDuration                         : 14mn 46s\nBit rate                         : 129 Kbps\nChannel(s)                       : 2 channels\nChannel positions                : Front: L R\nSampling rate                    : 44.1 KHz\nCompression mode                 : Lossy\nStream size                      : 13.6 MiB (14%)\n\n_________________________________________________________________\n\n\nplease SEED after download\n","torrent":{"xt":"urn:btih:cebcc9aef0c82177f204889b9643e17ac7183a0f","amp;dn":"WWE+Monday+Night++RAW++01+08+11+_theMIZ","amp;tr":["udp%3A%2F%2Ftracker.openbittorrent.com%3A80","udp%3A%2F%2Fopen.demonii.com%3A1337","udp%3A%2F%2Ftracker.coppersurfer.tk%3A6969","udp%3A%2F%2Fexodus.desync.com%3A6969"],"infoHash":"cebcc9aef0c82177f204889b9643e17ac7183a0f","infoHashBuffer":{"type":"Buffer","data":[206,188,201,174,240,200,33,119,242,4,136,155,150,67,225,122,199,24,58,15]},"announce":[],"urlList":[]}}